<svg xmlns="http://www.w3.org/2000/svg" width="32" height="32"><path fill="#afb1b8" d="M16.145 15.628a.994.994 0 01-.206-.68v.003-.982c0-.301.068-.529.205-.686s.371-.234.703-.234c.312 0 .534.067.665.2.143.17.213.378.197.587v.231h-.558v-.234a1.161 1.161 0 00-.016-.228.226.226 0 00-.08-.136.317.317 0 00-.178-.054l-.025.001h.001l-.024-.001a.343.343 0 00-.19.057l.001-.001a.263.263 0 00-.092.148v.002a1.12 1.12 0 00-.022.224v.02-.001 1.191a.603.603 0 00.072.334.257.257 0 00.11.08l.002.001a.303.303 0 00.145.019h-.001a.303.303 0 00.198-.054l-.001.001a.24.24 0 00.083-.143v-.001c.013-.079.019-.159.017-.239v-.242h.559v.221l.002.058a.895.895 0 01-.196.561l.001-.002c-.128.146-.347.219-.669.219s-.564-.078-.702-.24zm2.325.01c-.141-.153-.212-.376-.212-.67v-1.033c0-.292.07-.512.212-.662s.377-.224.708-.224c.328 0 .563.075.704.224.141.15.213.37.213.662v1.032c0 .292-.072.515-.215.669s-.377.23-.702.23-.565-.078-.708-.229zm.968-.247a.564.564 0 00.067-.305v-1.264l.001-.034a.561.561 0 00-.068-.268l.001.003a.257.257 0 00-.112-.081l-.002-.001a.294.294 0 00-.149-.018h.002a.297.297 0 00-.15.019l.002-.001a.264.264 0 00-.114.082v.001a.545.545 0 00-.067.3v1.27a.57.57 0 00.067.306.353.353 0 00.118.076.391.391 0 00.289-.001l-.003.001a.363.363 0 00.118-.076v-.006zm1.329-2.31h.601l.452 1.905.463-1.905h.585l.059 2.749h-.433l-.046-1.911-.446 1.911h-.347l-.462-1.918-.043 1.918h-.437l.054-2.749zm2.835 0h.937c.54 0 .81.26.81.781 0 .498-.284.748-.852.747h-.319v1.222H23.6l.003-2.75zm.8 1.174c.057.006.115.002.17-.013s.106-.04.148-.074a.443.443 0 00.083-.31l.001-.03a.837.837 0 00-.03-.225l.001.006a.203.203 0 00-.043-.076.238.238 0 00-.071-.055l-.001-.001a.598.598 0 00-.228-.045l-.032.001h.001-.224v.822h.225zm1.78-1.174h.621l.637 2.749h-.539l-.126-.634h-.554l-.129.634h-.547l.637-2.749zm.531 1.797l-.216-1.154-.216 1.154h.432zm1.242-1.797h.405l.774 1.568v-1.568h.48v2.749h-.385l-.78-1.637v1.637h-.496l.001-2.749zm2.783 1.7l-.644-1.697h.543l.393 1.09.369-1.09h.531l-.636 1.697v1.048h-.555V14.78zm-13.7 2.251v.144h-.472v1.117h-.198v-1.117h-.474v-.144h1.144zm1.479 1.261h-.157a.075.075 0 01-.039-.012.064.064 0 01-.025-.029l-.137-.3h-.655l-.136.3a.085.085 0 01-.021.034.067.067 0 01-.039.012h-.156l.578-1.261h.201l.586 1.256zm-.958-.468h.546l-.232-.513a.851.851 0 01-.041-.112l-.002-.006-.022.067-.021.053-.229.512zm1.955.344a.706.706 0 00.284-.038c.026-.009.051-.02.077-.031v-.284h-.233a.048.048 0 01-.029-.01.028.028 0 01-.009-.01.02.02 0 01-.003-.011v-.098h.449v.483a.833.833 0 01-.238.101l-.006.001a1.025 1.025 0 01-.145.026 1.893 1.893 0 01-.169.008h-.007a.87.87 0 01-.29-.049l.006.002a.707.707 0 01-.232-.133l.001.001a.62.62 0 01-.148-.196l-.002-.004a.616.616 0 01-.053-.253v-.009-.008c0-.092.019-.18.054-.26l-.002.004a.576.576 0 01.149-.2.706.706 0 01.232-.131 1.08 1.08 0 01.471-.036.813.813 0 01.254.082c.035.02.069.042.101.066l-.055.078a.058.058 0 01-.018.017.06.06 0 01-.027.007.075.075 0 01-.036-.01.654.654 0 01-.06-.032l.003.002a.459.459 0 00-.074-.033l-.004-.001a.627.627 0 00-.102-.027l-.005-.001a.861.861 0 00-.139-.011h-.015a.674.674 0 00-.221.037l.005-.001a.434.434 0 00-.276.254l-.001.003a.586.586 0 00.001.424l-.001-.004a.502.502 0 00.285.259c.074.022.151.03.229.025zm1.843-.02h.631v.144h-.824v-1.261h.197l-.004 1.117zm1.288.144h-.197v-1.261h.197v1.261zm.736-1.255a.086.086 0 01.03.023l.845.95-.001-.022.001-.023v.001-.94h.172v1.266H24.323a.09.09 0 01-.037-.008h.001a.103.103 0 01-.031-.024l-.844-.95v.98h-.165V17.03h.103c.011 0 .022.002.032.006zm2.504-.006v.139h-.701v.416h.568v.134h-.568v.431h.701v.139h-.904v-1.258h.904zM5.162 9.245l8.781 2.152v7.543l-8.781-2.151V9.245zm-.564-.644v8.554l9.906 2.429v-8.553l-9.906-2.43z"/><path fill="#afb1b8" d="M9.908 23.555L0 21.124v-8.553l9.908 2.43v8.554z"/><path fill="#afb1b8" d="M4.763 9.148l8.667 2.126-3.685 3.183-8.668-2.127 3.687-3.182zm-.165-.546L0 12.571l9.908 2.431 4.597-3.97-9.906-2.43zm5.867 14.472l4.04-3.489-4.04-.991v4.48z"/></svg>