<svg xmlns="http://www.w3.org/2000/svg" width="32" height="32"><path fill="#afb1b8" d="M2.416 23.738c.124.14.189.316.186.496l.001.038a.73.73 0 01-.069.31l.002-.004a.792.792 0 01-.221.282l-.002.001a1.322 1.322 0 01-.843.228h.004-1.475v-3.144h1.445a1.313 1.313 0 01.805.211l-.005-.003a.739.739 0 01.216.264.656.656 0 01.064.325.686.686 0 01-.168.48.802.802 0 01-.44.246.85.85 0 01.498.269zm-1.73-.474h.618a.631.631 0 00.393-.105.368.368 0 00.104-.137l.001-.002a.344.344 0 00.029-.138l-.001-.031v.001a.359.359 0 00-.029-.169l.001.002a.381.381 0 00-.103-.14.63.63 0 00-.406-.106h.002-.608v.825zm1.071 1.206a.4.4 0 00.113-.142l.001-.002a.351.351 0 00.033-.15l-.001-.026v.001l.001-.023a.376.376 0 00-.035-.157l.001.002a.408.408 0 00-.115-.144l-.001-.001a.673.673 0 00-.378-.115l-.043.001h.002-.648v.865h.656a.688.688 0 00.414-.109zm3.612.621l-.803-1.229h-.302v1.229h-.691v-3.145h1.309a1.368 1.368 0 01.914.27l-.004-.003a.964.964 0 01.313.7.946.946 0 01-.217.603l.001-.002a1.09 1.09 0 01-.618.319l-.006.001.856 1.257h-.752zm-1.105-1.658h.565c.393 0 .589-.158.589-.476l.001-.025a.427.427 0 00-.034-.168l.001.003a.484.484 0 00-.112-.163.646.646 0 00-.39-.13l-.057.002h.002-.572l.007.957zm4.884 1.024H7.77l-.243.633h-.725l1.265-3.11h.784l1.26 3.11h-.724l-.238-.633zm-.184-.476l-.503-1.327-.503 1.327h1.007zm4.914 1.11h-.686l-1.539-2.138v2.138h-.685v-3.145h.685l1.539 2.151v-2.151h.686v3.145zm3.917-.753a1.433 1.433 0 01-.621.555 2.138 2.138 0 01-.909.199l-.059-.001h.003-1.221v-3.145h1.222l.057-.001c.329 0 .641.071.922.199l-.014-.006c.263.122.479.313.621.549.141.256.215.538.215.825s-.074.569-.215.825zm-.786-.075c.186-.195.301-.459.303-.75a1.1 1.1 0 00-.303-.75 1.259 1.259 0 00-.863-.267h.004-.476v2.036h.476c.024.002.051.002.079.002.296 0 .568-.102.783-.272l-.003.002zM9.578 4.453s8.857 3.062 8.67 7.493v7.494s-8.851-3.063-8.667-7.494l-.003-7.493zm16.56 13.232a12.85 12.85 0 015.628-1.899v-2.347c-2.327.822-4.302 2.311-5.628 4.245z"/><path fill="#afb1b8" d="M25.134 18.392c1.369-2.524 3.742-4.472 6.633-5.444v-6.76S19.152 10.55 19.419 16.859v10.67s.562-.195 1.447-.561c0-.341 0-.685.041-1.031.261-2.929 1.781-5.643 4.228-7.546z"/><path fill="#afb1b8" d="M23.934 22.356c.066-.74.214-1.472.441-2.185-1.524 1.643-2.446 3.683-2.638 5.831a8.806 8.806 0 00-.034.615 35.154 35.154 0 002.629-1.27l-.203.1a10.095 10.095 0 01-.196-3.09zm.502.038a9.713 9.713 0 00.167 2.861l-.011-.063c3.446-1.889 7.319-4.806 7.17-8.332v-.307c-2.462.252-4.766 1.238-6.557 2.805a9.547 9.547 0 00-.765 2.998l-.003.038z"/></svg>