<svg xmlns="http://www.w3.org/2000/svg" width="32" height="32"><path fill="#2196f3" d="M4.949 13.027h-.001c-.903 0-1.635.65-1.635 1.453v.001c0 .802.732 1.453 1.635 1.453h.001c.903 0 1.635-.651 1.635-1.453v-.001c0-.803-.732-1.453-1.635-1.453zm12.066-.464c-.003-1.114-.502-2.183-1.388-2.971s-2.088-1.232-3.342-1.234c-1.254.002-2.457.446-3.344 1.234s-1.387 1.856-1.389 2.971v6.145s9.462-.937 9.463-6.144v-.001zM0 20.725c.002.776.35 1.518.967 2.067s1.453.857 2.325.859c.872-.002 1.708-.311 2.325-.859s.965-1.291.967-2.066V16.45S0 17.102 0 20.725zm3.292.765a.942.942 0 01-.479-.129.792.792 0 01-.315-.339l-.002-.005a.681.681 0 01-.048-.447l-.001.005a.737.737 0 01.236-.392.89.89 0 01.436-.209l.005-.001a.98.98 0 01.504.045l-.007-.002c.158.058.293.156.387.282s.145.274.145.425a.685.685 0 01-.065.294.775.775 0 01-.186.249l-.001.001a.869.869 0 01-.28.167.945.945 0 01-.33.059H3.29v-.003zm6.654-.421h-.635v.656H8.98v-1.606h1.046v.268h-.715v.415h.635v.267zm1.59-.11c0 .158-.028.297-.084.416a.631.631 0 01-.586.373h-.012.001a.641.641 0 01-.598-.366l-.002-.004a.932.932 0 01-.087-.397v-.014.001-.079c0-.158.029-.297.085-.417a.631.631 0 01.599-.374.632.632 0 01.598.374.96.96 0 01.086.416v.072zm-.335-.074c0-.168-.03-.296-.09-.384a.294.294 0 00-.245-.131h-.014.001-.013a.293.293 0 00-.244.13l-.001.001c-.06.086-.091.212-.091.379v.078c0 .164.03.291.09.381s.147.136.261.136h.013a.29.29 0 00.242-.129l.001-.001c.059-.087.09-.215.09-.382v-.078zm1.408.418v-.009a.167.167 0 00-.066-.133.84.84 0 00-.238-.106 1.658 1.658 0 01-.282-.115l.01.005c-.183-.099-.274-.232-.274-.398 0-.087.024-.164.073-.232.049-.069.12-.122.211-.16s.195-.057.309-.057c.115 0 .217.021.307.063s.159.099.208.175c.05.075.075.162.075.258h-.331a.216.216 0 00-.069-.171.283.283 0 00-.195-.062.301.301 0 00-.189.052.16.16 0 00-.067.131v.004c0 .052.026.096.078.131s.131.068.233.099c.188.056.325.127.411.211s.129.188.129.313c0 .139-.053.248-.158.328s-.246.118-.424.118a.83.83 0 01-.338-.068.548.548 0 01-.232-.184l-.001-.002a.47.47 0 01-.079-.264v-.011.001h.332c0 .177.106.266.318.266.079 0 .14-.016.184-.047a.159.159 0 00.066-.128v-.007zm1.766-.916h-.492v1.338h-.331v-1.338h-.485v-.268h1.308v.268zm1.156.642h-.635v.43h.745v.266h-1.076v-1.606h1.074v.268h-.744v.383h.635v.259zm.899.108h-.264v.588h-.331v-1.606h.597c.19 0 .336.043.439.127s.154.204.154.358c0 .11-.024.201-.072.275a.484.484 0 01-.212.173l-.003.001.347.656v.015h-.355l-.301-.587zm-.264-.268h.267a.275.275 0 00.193-.063.227.227 0 00.068-.163v-.013.001c0-.076-.021-.136-.065-.179s-.108-.065-.198-.065h-.266v.482zm2.005.29v.566h-.331v-1.606h.626c.12 0 .227.022.318.066s.163.107.212.189a.524.524 0 01.074.277c0 .157-.054.282-.162.373s-.256.136-.447.136h-.29zm0-.268h.296c.088 0 .154-.021.2-.062.047-.041.07-.1.07-.177v-.012a.26.26 0 00-.07-.179.263.263 0 00-.192-.075h-.303v.504zm2.093.138h-.635v.43h.745v.266h-1.076v-1.606h1.074v.268h-.744v.383h.635v.259zm1.536-.642h-.492v1.338h-.331v-1.338h-.485v-.268H21.8v.268zm1.156.642h-.635v.43h.745v.266h-1.077v-1.606h1.074v.268h-.743v.383h.635v.259zm.899.108h-.264v.588h-.331v-1.606h.597c.19 0 .336.043.439.127s.154.204.154.358c0 .11-.024.201-.072.275a.484.484 0 01-.212.173l-.003.001.347.656v.015h-.355l-.301-.587zm-.264-.268h.267a.275.275 0 00.193-.063.226.226 0 00.069-.163v-.013.001a.239.239 0 00-.065-.179c-.043-.043-.108-.065-.197-.065h-.266v.482zm1.945.435v-.009a.169.169 0 00-.066-.134.84.84 0 00-.238-.106 1.658 1.658 0 01-.282-.115l.01.005c-.183-.099-.274-.232-.274-.398 0-.087.024-.164.073-.232.049-.069.12-.122.211-.16s.195-.057.309-.057c.115 0 .217.021.307.063s.159.099.208.175c.05.075.075.162.075.258h-.331a.216.216 0 00-.069-.171.283.283 0 00-.195-.062.301.301 0 00-.189.052.16.16 0 00-.068.131v.004c0 .052.026.096.079.131s.131.068.233.099c.188.056.325.127.411.211s.129.188.129.313c0 .139-.053.248-.158.328s-.247.118-.424.118a.83.83 0 01-.338-.068.548.548 0 01-.232-.184l-.001-.002a.47.47 0 01-.079-.264v-.011.001h.332c0 .177.106.266.318.266.079 0 .14-.016.184-.047a.159.159 0 00.066-.128v-.006z"/></svg>