<svg xmlns="http://www.w3.org/2000/svg" width="32" height="32"><path fill="#afb1b8" d="M6.128 0l4.771 4.517-8.857-.005v21.915h23.149v-8.379l4.766 4.512V.001H6.127zm18.854 17.517L11.454 4.71h13.528v12.807zm-4.2 5.703H5.706V8.482h1.066v13.74h14.011v.997zM9.266 29.345l-.557 1.147-.557-1.147h-.467l.813 1.529v.891h.422v-.891l.811-1.529h-.465zm.7 2.42l.196-.564h.938l.197.564h.439l-.916-2.42h-.378l-.914 2.42h.437zm.665-1.906l.351 1.004h-.701l.351-1.004zm2.217.945a.544.544 0 00-.091.303v.004c0 .204.072.37.214.497s.336.19.575.19a1 1 0 00.618-.195l.136.161h.468l-.355-.421c.14-.191.209-.435.209-.733h-.351a.973.973 0 01-.101.444l-.468-.552.165-.12a.922.922 0 00.249-.249l.002-.003a.53.53 0 00.076-.275v-.004-.009a.495.495 0 00-.169-.374h-.001a.61.61 0 00-.408-.157h-.025.001c-.195 0-.35.056-.465.166s-.173.259-.173.449c0 .078.018.157.054.241.038.083.104.184.197.302-.179.129-.3.24-.36.334zm1.092.536a.613.613 0 01-.382.136h-.02a.395.395 0 01-.27-.106.36.36 0 01-.108-.259v-.014.001c0-.129.067-.245.2-.346l.052-.037.528.624zm-.433-1.073c-.114-.141-.172-.257-.172-.351 0-.081.024-.148.07-.201a.239.239 0 01.178-.081h.01-.001.009c.067 0 .127.026.173.068a.214.214 0 01.072.161v.009a.3.3 0 01-.103.226l-.052.041-.184.127zm3.939 1.315c.166-.145.261-.347.286-.605h-.419c-.022.173-.075.296-.158.37s-.208.112-.372.112c-.18 0-.318-.069-.412-.206s-.14-.337-.14-.599v-.214c.003-.259.052-.453.15-.587a.494.494 0 01.422-.201c.157 0 .276.039.357.116s.133.202.153.376h.419c-.027-.265-.121-.47-.285-.615s-.378-.218-.645-.218a.978.978 0 00-.525.142.925.925 0 00-.345.396l-.002.006a1.396 1.396 0 00-.122.576v.03-.001.226c.003.223.045.418.125.587s.193.298.339.39a.955.955 0 00.511.136c.276 0 .497-.072.663-.216zm2.472-.339c.082-.18.123-.388.123-.625v-.134-.024c0-.216-.047-.421-.131-.605l.004.009a.932.932 0 00-.35-.406l-.004-.002c-.152-.095-.326-.143-.524-.143s-.372.048-.525.144a.939.939 0 00-.354.414c-.079.175-.125.38-.125.595v.032-.002.136c.001.232.043.436.126.613a.95.95 0 00.356.411.98.98 0 00.525.143.971.971 0 00.526-.143.941.941 0 00.352-.413zm-.45-1.369c.102.143.152.349.152.618v.126c0 .272-.05.48-.151.622a.49.49 0 01-.429.213h-.017a.503.503 0 01-.413-.216l-.001-.002c-.104-.145-.155-.351-.155-.617v-.14c.002-.26.054-.462.156-.603a.498.498 0 01.409-.215h.018-.001c.187 0 .33.072.431.214z"/></svg>