<svg xmlns="http://www.w3.org/2000/svg" width="32" height="32"><path fill="#afb1b8" d="M5.266 30.294a.1.1 0 01.061.024l.155.148c-.121.12-.269.216-.437.282a1.673 1.673 0 01-.578.101l-.042-.001h.002a1.607 1.607 0 01-.581-.095 1.275 1.275 0 01-.439-.267l.001.001a1.196 1.196 0 01-.281-.403l-.003-.008a1.337 1.337 0 01-.099-.511v-.017-.026c0-.362.157-.688.407-.912l.001-.001c.132-.116.291-.207.465-.268.191-.064.395-.096.599-.094h.037c.186 0 .364.031.53.089l-.011-.003c.154.058.295.139.417.238l-.13.158a.112.112 0 01-.033.028h-.001a.087.087 0 01-.045.012h-.007a.127.127 0 01-.058-.017h.001l-.069-.043-.097-.054a1.074 1.074 0 00-.3-.093l-.006-.001a1.298 1.298 0 00-.214-.017h-.018.001-.014c-.149 0-.292.026-.425.074l.009-.003a.998.998 0 00-.339.2l.001-.001a.905.905 0 00-.219.316c-.05.119-.079.258-.079.403v.015-.001.017c0 .147.029.287.082.414l-.003-.007a.894.894 0 00.537.511c.127.046.262.068.399.068.079.001.159-.004.237-.014a.928.928 0 00.513-.219l-.001.001a.123.123 0 01.073-.027zm4.479-.745v.016c0 .184-.039.358-.108.517l.003-.008a1.154 1.154 0 01-.29.406l-.001.001a1.342 1.342 0 01-.449.264l-.009.003a1.91 1.91 0 01-1.192-.004l.013.004a1.373 1.373 0 01-.456-.269l.001.001a1.193 1.193 0 01-.292-.403l-.003-.008a1.354 1.354 0 01.003-1.057l-.003.009a1.2 1.2 0 01.295-.412c.129-.113.284-.201.455-.258a1.851 1.851 0 011.193.004l-.013-.004c.172.06.328.151.457.267a1.2 1.2 0 01.293.406c.072.169.107.348.105.528zm-.407 0v-.022a1.1 1.1 0 00-.077-.407l.003.008a.87.87 0 00-.529-.512l-.006-.002a1.35 1.35 0 00-.866.003l.01-.003a.911.911 0 00-.328.2.848.848 0 00-.208.309l-.002.006a1.228 1.228 0 00.003.851l-.003-.009a.864.864 0 00.532.51l.006.002c.276.09.58.09.857 0a.912.912 0 00.327-.197.888.888 0 00.208-.315c.052-.135.077-.278.074-.421zm3.463.442l.041.094c.016-.033.029-.064.045-.094a.713.713 0 01.053-.096l-.002.004.991-1.565c.02-.027.037-.044.057-.049s.044-.009.068-.009h.014-.001.293v2.546h-.347v-1.951l-.001-.044.002-.046v.002l-.998 1.587a.144.144 0 01-.058.057h-.001a.177.177 0 01-.084.021H12.813a.17.17 0 01-.084-.022h.001a.136.136 0 01-.057-.057v-.001l-1.026-1.597v2.043h-.335v-2.54h.306c.024 0 .048.003.07.009h-.002a.113.113 0 01.054.049l1.012 1.567a.528.528 0 01.049.088l.001.003zm3.728-.126v.953h-.387v-2.541h.865a1.86 1.86 0 01.483.055.954.954 0 01.341.159.666.666 0 01.192.245l.002.004a.77.77 0 01.066.326v.016c0 .23-.11.434-.279.563l-.002.001a.998.998 0 01-.343.168 1.585 1.585 0 01-.436.059h-.032l-.468-.007zm0-.274h.469a1.13 1.13 0 00.301-.038.642.642 0 00.218-.111l-.002.001a.487.487 0 00.178-.377v-.006l.001-.027a.425.425 0 00-.04-.182l.001.003a.5.5 0 00-.134-.173l-.001-.001a.827.827 0 00-.461-.139l-.064.002h.003-.469v1.047zm5.212 1.23h-.312a.145.145 0 01-.08-.024h.001a.158.158 0 01-.051-.058v-.001l-.263-.614h-1.325l-.273.614a.147.147 0 01-.131.083h-.311l1.163-2.546h.403l1.179 2.546zm-1.92-.945h1.094l-.461-1.036a1.63 1.63 0 01-.087-.239l-.045.133a.899.899 0 01-.043.108l-.457 1.034zm3.595-1.588a.162.162 0 01.058.045l1.697 1.919v-1.976h.347v2.546h-.197a.191.191 0 01-.076-.016h.001a.208.208 0 01-.062-.047l-1.695-1.917.001.044c0 .016 0 .031-.002.046v-.002 1.892h-.347v-2.546h.206a.21.21 0 01.07.012zm4.959 1.521v1.011h-.388v-1.01l-1.072-1.533h.355c.028 0 .054.008.075.022h-.001a.243.243 0 01.053.058l.671.989c.027.043.05.081.07.118s.036.073.049.107l.05-.11a.958.958 0 01.066-.116l.661-.996a.281.281 0 01.049-.054.127.127 0 01.077-.025h.359l-1.074 1.54zm-15.766-5.805c.169.018.339.033.512.047 2.616-1.017 4.829-2.681 6.363-4.784s2.319-4.553 2.259-7.043l-2.884-2.505c.587 2.65.313 5.39-.791 7.913s-2.994 4.729-5.459 6.372z"/><path fill="#afb1b8" d="M11.58 23.888l.078.014c2.634-1.638 4.641-3.923 5.764-6.562s1.308-5.51.533-8.242L13.848 5.53c1.66 2.933 2.33 6.215 1.927 9.465-.401 3.25-1.856 6.333-4.196 8.892zm13.926-8.723c-.698 2.736-2.392 5.202-4.832 7.035-.666.507-1.418.982-2.209 1.391l-.086.04c1.987-.507 3.812-1.404 5.337-2.621s2.707-2.723 3.456-4.4l-1.665-1.446z"/><path fill="#afb1b8" d="M24.853 14.763l-2.371-2.06c-.046 2.349-.814 4.644-2.226 6.647s-3.416 3.642-5.803 4.745h.011c.532 0 1.063-.028 1.591-.082 2.231-.791 4.202-2.05 5.737-3.664s2.586-3.533 3.06-5.586zM11.922 4.025l-2.829-2.46c-2.529.849-4.703 2.342-6.24 4.282s-2.362 4.24-2.37 6.595c.009 2.603 1.018 5.129 2.866 7.177 1.847 2.048 4.428 3.504 7.334 4.134 2.594-2.746 4.113-6.14 4.336-9.687s-.863-7.065-3.098-10.041zm19.466 10.359c-.01-3.088-1.427-6.047-3.94-8.23s-5.919-3.414-9.473-3.423h-.026c-1.709 0-3.351.285-4.882.809l.106-.032 17.319 15.047c.564-1.226.894-2.659.896-4.17v-.001z"/></svg>